<?xml version="1.0" encoding="utf-8"?>
<!-- Generator: Adobe Illustrator 19.2.1, SVG Export Plug-In . SVG Version: 6.00 Build 0)  -->
<svg version="1.1" id="Layer_1" xmlns="http://www.w3.org/2000/svg" xmlns:xlink="http://www.w3.org/1999/xlink" x="0px" y="0px"
	 viewBox="0 0 59.4 16.2" style="enable-background:new 0 0 59.4 16.2;" xml:space="preserve">
<style type="text/css">
	.st0{fill:#FFFFFF;}
	.st1{fill:#FFFFFF;stroke:#FFFFFF;stroke-width:0.75;stroke-miterlimit:10;}
	.st2{fill:none;stroke:#FFFFFF;stroke-width:2;stroke-miterlimit:10;}
	.st3{fill:none;stroke:#FFFFFF;stroke-width:2;stroke-linecap:round;stroke-linejoin:round;stroke-miterlimit:10;}
	.st4{fill:none;stroke:#BABABA;stroke-width:1.5;stroke-linecap:round;stroke-linejoin:round;stroke-miterlimit:10;}
	.st5{fill:none;stroke:#FFFFFF;stroke-width:1.5;stroke-miterlimit:10;}
	.st6{fill:none;stroke:#FFFFFF;stroke-width:1.5;stroke-linecap:round;stroke-linejoin:round;stroke-miterlimit:10;}
	.st7{fill:none;stroke:#FFFFFF;stroke-miterlimit:10;}
</style>
<g>
	<path class="st7" d="M57.5,7.8c-0.3,0.3-0.5,0.5-0.7,0.8c-0.6-0.5-1.4-0.8-2.1-1c-1.3-0.2-2.5-0.1-3.7,0.5
		c-0.3,0.2-0.6,0.4-0.9,0.6c-0.9,0.9-2,1.4-3.3,1.6c-1.5,0.2-3,0-4.4-0.8c-0.3-0.2-0.6-0.4-0.8-0.6c-0.8-0.8-1.7-1.2-2.8-1.3
		c-1.2-0.2-2.4,0-3.6,0.6c-0.3,0.1-0.5,0.3-0.7,0.5c-0.9,0.9-2,1.4-3.3,1.6c-1.5,0.2-3,0-4.3-0.7c-0.3-0.2-0.6-0.4-0.9-0.7
		c-0.8-0.8-1.7-1.2-2.8-1.3c-1.1-0.2-2.2,0-3.2,0.5c-0.4,0.2-0.8,0.5-1.1,0.8c-0.9,0.8-2,1.3-3.2,1.5c-1.5,0.2-2.9,0-4.2-0.7
		c-0.4-0.2-0.7-0.4-1-0.7c-1-1-2.3-1.4-3.7-1.4c-1,0-1.9,0.2-2.8,0.7c-0.1,0.1-0.2,0.1-0.3,0C3.5,8,3.4,7.7,3.2,7.5
		C3.6,7.2,4,7,4.4,6.9c2.2-0.7,4.2-0.5,6.1,0.8c0.1,0.1,0.2,0.2,0.3,0.3C12,9,13.3,9.4,14.8,9.3c1.3,0,2.5-0.5,3.5-1.4
		c0.9-0.8,2-1.2,3.2-1.4c1.4-0.2,2.7,0,3.9,0.6c0.4,0.2,0.8,0.5,1.1,0.8c0.8,0.7,1.7,1.1,2.7,1.3c1.3,0.2,2.6,0,3.7-0.6
		c0.2-0.1,0.5-0.3,0.7-0.5c1-0.9,2.1-1.4,3.4-1.6c1.4-0.2,2.8,0,4.1,0.7c0.3,0.2,0.7,0.4,1,0.7c1.1,1.1,2.4,1.4,3.9,1.4
		c1.1,0,2.1-0.3,3-1C49,8.2,49.1,8.1,49.3,8c1-0.9,2.2-1.4,3.5-1.5c1.4-0.1,2.7,0.1,3.9,0.8C57,7.4,57.2,7.6,57.5,7.8z"/>
</g>
</svg>
