<?xml version="1.0" encoding="utf-8"?>
<!-- Generator: Adobe Illustrator 19.2.1, SVG Export Plug-In . SVG Version: 6.00 Build 0)  -->
<svg version="1.1" id="Layer_1" xmlns="http://www.w3.org/2000/svg" xmlns:xlink="http://www.w3.org/1999/xlink" x="0px" y="0px"
	 viewBox="0 0 65 61.1" style="enable-background:new 0 0 65 61.1;" xml:space="preserve">
<style type="text/css">
	.st0{fill:#FFFFFF;}
	.st1{fill:#FFFFFF;stroke:#FFFFFF;stroke-width:0.75;stroke-miterlimit:10;}
	.st2{fill:none;stroke:#FFFFFF;stroke-width:2;stroke-miterlimit:10;}
	.st3{fill:none;stroke:#FFFFFF;stroke-width:2;stroke-linecap:round;stroke-linejoin:round;stroke-miterlimit:10;}
	.st4{fill:none;stroke:#BABABA;stroke-width:1.5;stroke-linecap:round;stroke-linejoin:round;stroke-miterlimit:10;}
	.st5{fill:none;stroke:#FFFFFF;stroke-width:1.5;stroke-miterlimit:10;}
	.st6{fill:none;stroke:#FFFFFF;stroke-width:1.5;stroke-linecap:round;stroke-linejoin:round;stroke-miterlimit:10;}
	.st7{fill:none;stroke:#FFFFFF;stroke-miterlimit:10;}
</style>
<g>
	<g>
		<g>
			<path class="st0" d="M32.6,24.4c-2.1,0-3.8-1.7-3.8-3.9c0-2.1,1.7-3.9,3.8-3.9s3.8,1.7,3.8,3.9C36.4,22.6,34.7,24.4,32.6,24.4z
				 M32.6,18.4c-1.1,0-2,0.9-2,2.1s0.9,2.1,2,2.1c1.1,0,2-0.9,2-2.1S33.7,18.4,32.6,18.4z"/>
		</g>
	</g>
	<g>
		<g>
			<path class="st0" d="M29.6,33.6c-0.2,0-0.5-0.1-0.6-0.3c-0.2-0.2-0.3-0.4-0.3-0.6c0-0.2,0.1-0.5,0.3-0.6c0.3-0.3,0.9-0.3,1.3,0
				c0.2,0.2,0.3,0.4,0.3,0.6c0,0.2-0.1,0.5-0.3,0.6C30.1,33.5,29.9,33.6,29.6,33.6z"/>
		</g>
	</g>
	<g>
		<g>
			<path class="st0" d="M32.6,52.2c-4.2,0-8.6-1.4-8.6-4.1c0-0.2,0-0.3,3.8-12.5c0.1-0.5,0.6-0.7,1.1-0.6c0.5,0.1,0.7,0.6,0.6,1.1
				c-2.9,9.2-3.6,11.5-3.7,12c0.1,0.9,2.8,2.3,6.8,2.3c4.1,0,6.7-1.3,6.8-2.3c-0.4-1.3-4-12.8-6.8-21.8l-1.1,3.4
				c-0.1,0.5-0.6,0.7-1.1,0.6c-0.5-0.1-0.7-0.6-0.6-1.1l1.9-6.1c0.1-0.4,0.5-0.6,0.8-0.6s0.7,0.2,0.8,0.6
				c7.8,24.5,7.8,24.7,7.8,24.9C41.2,50.8,36.7,52.2,32.6,52.2z"/>
		</g>
	</g>
	<g>
		<g>
			<g>
				<path class="st0" d="M32.6,12.8c-0.5,0-0.9-0.4-0.9-0.9v-3c0-0.5,0.4-0.9,0.9-0.9s0.9,0.4,0.9,0.9v3
					C33.5,12.4,33.1,12.8,32.6,12.8z"/>
			</g>
		</g>
		<g>
			<g>
				<g>
					<path class="st0" d="M44.8,22.4h-2.9c-0.5,0-0.9-0.4-0.9-0.9c0-0.5,0.4-0.9,0.9-0.9h2.9c0.5,0,0.9,0.4,0.9,0.9
						C45.6,22,45.3,22.4,44.8,22.4z"/>
				</g>
			</g>
			<g>
				<g>
					<path class="st0" d="M39.6,15.4c-0.2,0-0.4-0.1-0.6-0.3c-0.3-0.3-0.4-0.9,0-1.3l2.1-2.1c0.3-0.3,0.9-0.4,1.3,0
						c0.3,0.3,0.4,0.9,0,1.3l-2.1,2.1C40,15.3,39.8,15.4,39.6,15.4z"/>
				</g>
			</g>
			<g>
				<g>
					<path class="st0" d="M23.3,22.4h-2.9c-0.5,0-0.9-0.4-0.9-0.9c0-0.5,0.4-0.9,0.9-0.9h2.9c0.5,0,0.9,0.4,0.9,0.9
						C24.2,22,23.8,22.4,23.3,22.4z"/>
				</g>
			</g>
			<g>
				<g>
					<path class="st0" d="M25.8,15.4c-0.2,0-0.5-0.1-0.6-0.3L23.1,13c-0.3-0.3-0.3-0.9,0-1.3c0.3-0.3,0.9-0.3,1.3,0l2.1,2.1
						c0.3,0.3,0.3,0.9,0,1.3C26.2,15.3,26,15.4,25.8,15.4z"/>
				</g>
			</g>
		</g>
	</g>
	<g>
		<g>
			<path class="st0" d="M37.9,46.7c-8.2,0-11.2-6.7-11.2-6.7c-0.1-0.3-0.1-0.6,0.1-0.8c0.2-0.2,0.4-0.4,0.7-0.4
				c0.3,0,6.2-0.5,7.2-6.2c0.1-0.5,0.5-0.8,1-0.7c0.5,0.1,0.8,0.5,0.7,1c-0.9,5.3-5.3,6.9-7.5,7.4c1.2,1.8,4.3,5.3,10.6,4.6
				c0.5,0,0.9,0.3,1,0.8c0.1,0.5-0.3,0.9-0.8,1C39,46.7,38.4,46.7,37.9,46.7z"/>
		</g>
	</g>
</g>
</svg>
