<?xml version="1.0" encoding="utf-8"?>
<!-- Generator: Adobe Illustrator 19.2.1, SVG Export Plug-In . SVG Version: 6.00 Build 0)  -->
<svg version="1.1" id="Layer_1" xmlns="http://www.w3.org/2000/svg" xmlns:xlink="http://www.w3.org/1999/xlink" x="0px" y="0px"
	 viewBox="0 0 65 61.1" style="enable-background:new 0 0 65 61.1;" xml:space="preserve">
<style type="text/css">
	.st0{fill:#FFFFFF;}
	.st1{fill:#FFFFFF;stroke:#FFFFFF;stroke-width:0.75;stroke-miterlimit:10;}
	.st2{fill:none;stroke:#FFFFFF;stroke-width:2;stroke-miterlimit:10;}
	.st3{fill:none;stroke:#FFFFFF;stroke-width:2;stroke-linecap:round;stroke-linejoin:round;stroke-miterlimit:10;}
	.st4{fill:none;stroke:#BABABA;stroke-width:1.5;stroke-linecap:round;stroke-linejoin:round;stroke-miterlimit:10;}
	.st5{fill:none;stroke:#FFFFFF;stroke-width:1.5;stroke-miterlimit:10;}
	.st6{fill:none;stroke:#FFFFFF;stroke-width:1.5;stroke-linecap:round;stroke-linejoin:round;stroke-miterlimit:10;}
	.st7{fill:none;stroke:#FFFFFF;stroke-miterlimit:10;}
</style>
<g>
	<g>
		<g>
			<path class="st0" d="M40.1,45c-0.2,0-0.5-0.1-0.7-0.3c-0.2-0.2-0.3-0.4-0.3-0.7c0-0.3,0.1-0.5,0.3-0.7c0.3-0.3,1-0.4,1.3,0
				c0.2,0.2,0.3,0.4,0.3,0.7c0,0.2-0.1,0.5-0.3,0.7C40.6,44.9,40.3,45,40.1,45z"/>
		</g>
	</g>
	<g>
		<g>
			<path class="st0" d="M13.5,45c-0.2,0-0.5-0.1-0.7-0.3c-0.2-0.2-0.3-0.4-0.3-0.7c0-0.3,0.1-0.5,0.3-0.7c0.3-0.3,1-0.4,1.3,0
				c0.2,0.2,0.3,0.4,0.3,0.7c0,0.2-0.1,0.5-0.3,0.7C14,44.9,13.7,45,13.5,45z"/>
		</g>
	</g>
	<path class="st1" d="M43.9,33.3c-2.2,0-4.1,0.9-5.5,2.3c-1.4,1.4-2.3,3.4-2.3,5.5c0,2.2,0.9,4.1,2.3,5.5c1.4,1.4,3.4,2.3,5.5,2.3
		c2.2,0,4.1-0.9,5.5-2.3c1.4-1.4,2.3-3.4,2.3-5.5c0-2.2-0.9-4.1-2.3-5.5C48,34.2,46.1,33.3,43.9,33.3L43.9,33.3z M37.7,34.9
		c1.6-1.6,3.8-2.6,6.2-2.6c2.4,0,4.6,1,6.2,2.6c1.6,1.6,2.6,3.8,2.6,6.2c0,2.4-1,4.6-2.6,6.2c-1.6,1.6-3.8,2.6-6.2,2.6
		c-2.4,0-4.6-1-6.2-2.6c-1.6-1.6-2.6-3.8-2.6-6.2C35.2,38.7,36.2,36.5,37.7,34.9z"/>
	<path class="st1" d="M51.5,36.6L51.5,36.6l0.7,1.6c0,0,0,0,0,0.1c0.2,0.5,0.3,0.9,0.4,1.4c0.1,0.5,0.1,1,0.1,1.4
		c0,2.4-1,4.6-2.6,6.2c-1.6,1.6-3.8,2.6-6.2,2.6c-2.3,0-4.4-0.9-6-2.4c-1.6-1.5-2.6-3.5-2.7-5.8l0,0L34,26l-0.1-0.9c0,0,0,0,0,0h0
		c0-1.6,0.6-3.1,1.7-4.1c1-1,2.5-1.7,4.1-1.7c1.3,0,2.4,0.4,3.4,1.1c1,0.7,1.7,1.7,2.1,2.8L51.5,36.6L51.5,36.6z M51.4,38.6L50.7,37
		l-6.3-13.5l0,0c0,0,0,0,0,0c-0.3-1-1-1.8-1.8-2.4c-0.8-0.6-1.8-0.9-2.9-0.9c-1.4,0-2.6,0.5-3.5,1.4c-0.9,0.9-1.4,2.1-1.4,3.4
		l0.1,0.9l1.3,15.6h0l0,0c0.1,2.1,1,3.9,2.4,5.2c1.4,1.3,3.3,2.1,5.4,2.1c2.2,0,4.1-0.9,5.5-2.3c1.4-1.4,2.3-3.4,2.3-5.5
		c0-0.4,0-0.9-0.1-1.3C51.6,39.4,51.5,39,51.4,38.6z"/>
	<path class="st1" d="M35.2,21.6L34.8,17l0-0.3c0,0,0,0,0,0h0c0-0.7,0.3-1.3,0.7-1.8c0.5-0.5,1.1-0.7,1.8-0.7c0.5,0,1.1,0.2,1.5,0.5
		c0.4,0.3,0.7,0.7,0.9,1.2l1.8,3.9c0.1,0.2,0,0.5-0.2,0.6c-0.1,0-0.2,0.1-0.3,0l0,0c-0.2-0.1-0.4-0.1-0.6-0.1c-0.2,0-0.4,0-0.6,0
		c-0.7,0-1.4,0.2-2,0.4c-0.6,0.3-1.2,0.7-1.7,1.3c-0.2,0.2-0.4,0.2-0.6,0C35.3,21.8,35.2,21.7,35.2,21.6L35.2,21.6L35.2,21.6z
		 M35.7,16.9l0.3,3.7c0.4-0.3,0.8-0.6,1.3-0.8c0.7-0.3,1.6-0.5,2.4-0.5c0.2,0,0.4,0,0.6,0l-1.5-3.2l0,0c0,0,0,0,0,0
		c-0.1-0.3-0.3-0.6-0.6-0.8C38,15.1,37.6,15,37.3,15c-0.4,0-0.8,0.2-1.1,0.5c-0.3,0.3-0.5,0.7-0.5,1.1L35.7,16.9z"/>
	<path class="st1" d="M17.9,32.4c2.4,0,4.6,1,6.2,2.6c1.6,1.6,2.6,3.8,2.6,6.2c0,2.4-1,4.6-2.6,6.2c-1.6,1.6-3.8,2.6-6.2,2.6
		c-2.4,0-4.6-1-6.2-2.6c-1.6-1.6-2.6-3.8-2.6-6.2c0-2.4,1-4.6,2.6-6.2C13.3,33.3,15.5,32.4,17.9,32.4L17.9,32.4z M23.4,35.6
		c-1.4-1.4-3.4-2.3-5.5-2.3c-2.2,0-4.1,0.9-5.5,2.3c-1.4,1.4-2.3,3.4-2.3,5.5c0,2.2,0.9,4.1,2.3,5.5c1.4,1.4,3.4,2.3,5.5,2.3
		c2.2,0,4.1-0.9,5.5-2.3c1.4-1.4,2.3-3.4,2.3-5.5C25.7,38.9,24.8,37,23.4,35.6z"/>
	<path class="st1" d="M12.4,41.1c0,0.3-0.2,0.5-0.5,0.5s-0.5-0.2-0.5-0.5c0-1.8,0.7-3.3,1.9-4.5c1.2-1.2,2.7-1.9,4.5-1.9
		c0.3,0,0.5,0.2,0.5,0.5c0,0.3-0.2,0.5-0.5,0.5c-1.5,0-2.9,0.6-3.9,1.6C13.1,38.2,12.4,39.6,12.4,41.1z"/>
	<path class="st1" d="M11.1,37l-0.7,1.5c-0.1,0.4-0.2,0.8-0.3,1.2C10,40.2,10,40.6,10,41.1c0,2.2,0.9,4.1,2.3,5.5
		c1.4,1.4,3.4,2.3,5.5,2.3c2.1,0,4-0.8,5.4-2.1c1.4-1.3,2.3-3.2,2.4-5.2l0,0h0l1.3-15.6L27,25c0-1.3-0.6-2.6-1.4-3.4
		c-0.9-0.9-2.1-1.4-3.5-1.4c-1.1,0-2.1,0.3-2.9,0.9c-0.8,0.6-1.5,1.4-1.8,2.4c0,0,0,0,0,0l0,0L11.1,37L11.1,37z M9.6,38.2l0.7-1.6
		l0,0l6.3-13.4c0.4-1.2,1.1-2.1,2.1-2.8c1-0.7,2.1-1.1,3.4-1.1c1.6,0,3.1,0.6,4.1,1.7c1,1,1.7,2.5,1.7,4.1h0c0,0,0,0,0,0L27.8,26
		l-1.3,15.6l0,0c-0.1,2.3-1.2,4.3-2.7,5.8c-1.6,1.5-3.7,2.4-6,2.4c-2.4,0-4.6-1-6.2-2.6c-1.6-1.6-2.6-3.8-2.6-6.2c0-0.5,0-1,0.1-1.4
		C9.3,39.2,9.4,38.7,9.6,38.2C9.6,38.2,9.6,38.2,9.6,38.2z"/>
	<path class="st1" d="M25.8,20.6l0.3-3.7l0-0.3c0-0.4-0.2-0.8-0.5-1.1C25.4,15.2,25,15,24.5,15c-0.4,0-0.7,0.1-0.9,0.3
		c-0.3,0.2-0.5,0.5-0.6,0.8c0,0,0,0,0,0l0,0l-1.5,3.2c0.2,0,0.4,0,0.6,0c0.9,0,1.7,0.2,2.4,0.5C25,20,25.4,20.3,25.8,20.6L25.8,20.6
		z M27,17l-0.4,4.6l0,0c0,0.1-0.1,0.2-0.2,0.3c-0.2,0.2-0.5,0.1-0.6,0c-0.5-0.5-1-1-1.7-1.3c-0.6-0.3-1.3-0.4-2-0.4
		c-0.2,0-0.4,0-0.6,0c-0.2,0-0.4,0.1-0.6,0.1l0,0c-0.1,0-0.2,0-0.3,0c-0.2-0.1-0.3-0.4-0.2-0.6l1.8-3.9c0.2-0.5,0.5-0.9,0.9-1.2
		c0.4-0.3,0.9-0.5,1.5-0.5c0.7,0,1.3,0.3,1.8,0.7c0.5,0.5,0.7,1.1,0.7,1.8h0c0,0,0,0,0,0L27,17z"/>
	<path class="st1" d="M27.9,26.4c-0.3,0-0.5-0.2-0.5-0.5c0-0.3,0.2-0.5,0.5-0.5h6.5c0.3,0,0.5,0.2,0.5,0.5c0,0.3-0.2,0.5-0.5,0.5
		H27.9z"/>
	<path class="st1" d="M26.5,37.1c-0.3,0-0.5-0.2-0.5-0.5c0-0.3,0.2-0.5,0.5-0.5h8.9c0.3,0,0.5,0.2,0.5,0.5c0,0.3-0.2,0.5-0.5,0.5
		H26.5z"/>
	<path class="st1" d="M38.6,41.1c0,0.3-0.2,0.5-0.5,0.5s-0.5-0.2-0.5-0.5c0-1.8,0.7-3.3,1.9-4.5c1.2-1.2,2.7-1.9,4.5-1.9
		c0.3,0,0.5,0.2,0.5,0.5c0,0.3-0.2,0.5-0.5,0.5c-1.5,0-2.9,0.6-3.9,1.6C39.2,38.2,38.6,39.6,38.6,41.1z"/>
	<path class="st1" d="M35.1,41.1c0-0.2,0.2-0.4,0.5-0.4c0.2,0,0.4,0.2,0.4,0.5c-0.1,1.3-0.7,2.5-1.7,3.3c-0.9,0.8-2.1,1.3-3.5,1.3
		c-1.4,0-2.6-0.5-3.5-1.4c-0.9-0.9-1.5-2.1-1.6-3.4c0-0.2,0.2-0.5,0.4-0.5c0.2,0,0.5,0.2,0.5,0.4c0.1,1.1,0.6,2.1,1.3,2.8
		c0.8,0.7,1.8,1.2,2.9,1.2c1.1,0,2.1-0.4,2.8-1.1C34.5,43.1,35,42.2,35.1,41.1z"/>
</g>
</svg>
