<?xml version="1.0" encoding="utf-8"?>
<!-- Generator: Adobe Illustrator 19.2.1, SVG Export Plug-In . SVG Version: 6.00 Build 0)  -->
<svg version="1.1" id="Layer_1" xmlns="http://www.w3.org/2000/svg" xmlns:xlink="http://www.w3.org/1999/xlink" x="0px" y="0px"
	 viewBox="0 0 20.7 21.5" style="enable-background:new 0 0 20.7 21.5;" xml:space="preserve">
<style type="text/css">
	.st0{fill:#FFFFFF;}
	.st1{fill:#FFFFFF;stroke:#FFFFFF;stroke-width:0.75;stroke-miterlimit:10;}
	.st2{fill:none;stroke:#FFFFFF;stroke-width:2;stroke-miterlimit:10;}
	.st3{fill:none;stroke:#FFFFFF;stroke-width:2;stroke-linecap:round;stroke-linejoin:round;stroke-miterlimit:10;}
	.st4{fill:none;stroke:#BABABA;stroke-width:1.5;stroke-linecap:round;stroke-linejoin:round;stroke-miterlimit:10;}
	.st5{fill:none;stroke:#FFFFFF;stroke-width:1.5;stroke-miterlimit:10;}
	.st6{fill:none;stroke:#FFFFFF;stroke-width:1.5;stroke-linecap:round;stroke-linejoin:round;stroke-miterlimit:10;}
	.st7{fill:none;stroke:#FFFFFF;stroke-miterlimit:10;}
</style>
<g>
	<path class="st0" d="M3.6,11.1c0-1.2,0-2.5,0-3.7c0-0.3,0.1-0.4,0.3-0.6C6,5.7,8.1,4.5,10.3,3.2c0.3-0.2,0.5-0.2,0.7,0
		c2.1,1.2,4.2,2.4,6.3,3.7c0.2,0.1,0.3,0.3,0.3,0.6c0,2.5,0,4.9,0,7.4c0,0.3-0.1,0.4-0.3,0.5c-2.1,1.2-4.3,2.4-6.4,3.7
		c-0.3,0.1-0.4,0.1-0.7,0c-2.1-1.2-4.3-2.5-6.4-3.7c-0.2-0.1-0.3-0.3-0.3-0.5C3.6,13.6,3.6,12.4,3.6,11.1z"/>
</g>
<polyline class="st4" points="8.2,10.7 10.6,12.7 13,10.7 "/>
</svg>
