<?xml version="1.0" encoding="utf-8"?>
<!-- Generator: Adobe Illustrator 19.2.1, SVG Export Plug-In . SVG Version: 6.00 Build 0)  -->
<svg version="1.1" id="Layer_1" xmlns="http://www.w3.org/2000/svg" xmlns:xlink="http://www.w3.org/1999/xlink" x="0px" y="0px"
	 viewBox="0 0 65 61.1" style="enable-background:new 0 0 65 61.1;" xml:space="preserve">
<style type="text/css">
	.st0{fill:#FFFFFF;}
	.st1{fill:#FFFFFF;stroke:#FFFFFF;stroke-width:0.75;stroke-miterlimit:10;}
	.st2{fill:none;stroke:#FFFFFF;stroke-width:2;stroke-miterlimit:10;}
	.st3{fill:none;stroke:#FFFFFF;stroke-width:2;stroke-linecap:round;stroke-linejoin:round;stroke-miterlimit:10;}
	.st4{fill:none;stroke:#BABABA;stroke-width:1.5;stroke-linecap:round;stroke-linejoin:round;stroke-miterlimit:10;}
	.st5{fill:none;stroke:#FFFFFF;stroke-width:1.5;stroke-miterlimit:10;}
	.st6{fill:none;stroke:#FFFFFF;stroke-width:1.5;stroke-linecap:round;stroke-linejoin:round;stroke-miterlimit:10;}
	.st7{fill:none;stroke:#FFFFFF;stroke-miterlimit:10;}
</style>
<g>
	<g>
		<path class="st0" d="M38,25.8c-0.2,0-0.5-0.1-0.6-0.3c-0.2-0.2-0.3-0.4-0.3-0.6c0-0.2,0.1-0.5,0.3-0.6c0.3-0.3,0.9-0.3,1.3,0
			c0.2,0.2,0.3,0.4,0.3,0.6c0,0.2-0.1,0.5-0.3,0.6C38.5,25.7,38.2,25.8,38,25.8z"/>
	</g>
</g>
<path class="st2" d="M18.3,34.4c-6.3,2-9.5,4.6-9.2,7.2c0.5,3.9,10.5,5.7,22.4,4.2c11.8-1.6,21-5.9,20.5-9.8
	c-0.3-2.6-4.9-4.3-11.5-4.6L39,31.3"/>
<polygon class="st0" points="24.9,34.9 23.2,35.5 23.8,33.8 22.7,32.5 24.5,32.5 25.4,31 25.9,32.7 27.6,33.2 26.2,34.2 26.3,35.9 
	"/>
<polygon class="st0" points="33,31.7 31.8,32.5 32,31.1 30.9,30.2 32.3,29.9 32.8,28.6 33.5,29.9 34.9,29.9 33.9,31 34.3,32.4 "/>
<polygon class="st0" points="27.4,26.9 26.5,27.5 26.7,26.5 25.9,25.9 26.9,25.7 27.2,24.8 27.7,25.6 28.7,25.7 28,26.4 28.2,27.4 
	"/>
<polygon class="st0" points="32.9,24.2 32.3,24.5 32.4,23.8 31.9,23.4 32.6,23.3 32.8,22.6 33.2,23.2 33.9,23.3 33.4,23.8 
	33.6,24.5 "/>
<path class="st3" d="M38.7,21.2c0.8-3.1,1.9-4.7,3.2-6.5c1-1.5-0.9-2.1-2.2-1.8C26.2,15.6,16.7,27,19.4,38.2
	c4.3,2.9,20.3-0.4,21.2-4.1c-1.8-2.2-2.5-3.5-2.6-5.8"/>
</svg>
